<?xml version="1.0" standalone="no"?>
<!DOCTYPE svg PUBLIC "-//W3C//DTD SVG 20010904//EN"
 "http://www.w3.org/TR/2001/REC-SVG-20010904/DTD/svg10.dtd">
<svg version="1.0" xmlns="http://www.w3.org/2000/svg"
 width="150.000000pt" height="202.000000pt" viewBox="0 0 150.000000 202.000000"
 preserveAspectRatio="xMidYMid meet">

<g transform="translate(0.000000,202.000000) scale(0.100000,-0.100000)"
fill="#000000" stroke="none">
<path d="M0 1010 l0 -1010 750 0 750 0 0 1010 0 1010 -750 0 -750 0 0 -1010z
m855 726 c-108 -26 -194 -93 -230 -180 -41 -98 -7 -165 175 -337 170 -160 195
-210 156 -304 -16 -38 -27 -47 -19 -15 9 33 -6 88 -33 120 -16 18 -79 57 -155
96 -146 74 -207 126 -245 209 -34 73 -40 139 -21 206 39 133 176 218 352 217
l70 0 -50 -12z m-14 -136 l-24 -25 -26 25 c-24 23 -25 26 -8 33 11 4 21 15 24
26 4 17 7 16 31 -8 l27 -26 -24 -25z m-313 43 c-52 -55 -73 -111 -73 -193 1
-152 78 -245 293 -355 101 -51 138 -75 153 -99 22 -37 24 -81 4 -116 l-14 -25
-1 30 c0 64 -50 99 -190 134 -106 26 -221 82 -269 130 -140 140 -110 369 63
488 59 40 68 42 34 6z m575 -349 c-8 -20 -56 -49 -61 -36 -7 22 -47 75 -65 86
-14 9 -21 7 -33 -8 -20 -28 -18 -69 6 -98 38 -49 86 -40 165 33 l46 43 24 -25
c24 -24 24 -24 15 -159 -8 -120 -12 -137 -31 -152 -12 -10 -30 -18 -41 -18
-17 0 -19 4 -13 28 3 15 15 34 25 42 16 13 18 25 13 87 l-6 72 -26 -78 c-29
-83 -64 -139 -130 -211 -39 -42 -41 -43 -26 -13 8 18 18 52 21 76 10 74 -20
124 -152 251 -110 106 -116 114 -104 136 19 35 91 110 121 126 32 16 141 19
168 4 15 -7 21 -4 31 18 12 26 14 21 35 -82 13 -61 21 -116 18 -122z m-748
-70 c50 -103 150 -169 340 -224 151 -44 187 -73 170 -138 l-7 -27 -16 22 c-22
28 -62 43 -117 43 -74 0 -197 28 -262 60 -114 56 -163 144 -163 290 0 43 3 93
7 111 7 32 8 30 15 -26 4 -33 19 -83 33 -111z m166 -310 c50 -17 106 -27 172
-31 109 -7 145 -23 133 -60 -17 -53 -161 -58 -261 -8 -56 27 -167 121 -186
157 -9 16 -4 15 29 -7 22 -14 73 -38 113 -51z m-161 -442 c4 -98 8 -116 24
-128 25 -18 57 -18 82 0 16 12 20 30 24 128 l5 113 33 3 32 3 0 -126 0 -127
-33 -33 c-79 -79 -213 -45 -238 62 -10 46 -12 207 -2 217 4 4 21 6 38 4 l30
-3 5 -113z m514 104 c46 -19 52 -33 25 -62 -21 -22 -24 -23 -45 -9 -96 63
-196 -64 -115 -146 34 -33 69 -37 112 -12 28 17 30 17 52 -5 l22 -23 -27 -24
c-63 -55 -187 -37 -235 34 -79 117 -5 259 135 261 23 0 58 -6 76 -14z m364
-23 l3 -33 -90 0 -91 0 0 -30 0 -29 78 -3 77 -3 3 -32 3 -33 -80 0 -81 0 0
-60 0 -60 -35 0 -35 0 0 153 c0 85 3 157 7 161 4 3 59 5 122 4 l116 -3 3 -32z"/>
</g>
</svg>
